<svg width="690" height="197" viewBox="0 0 690 197" fill="none" xmlns="http://www.w3.org/2000/svg">
<path d="M684.2 58.8C683.882 56.6966 682.998 54.7196 681.641 53.0811C680.284 51.4426 678.507 50.2046 676.5 49.5C674.609 48.83 672.601 48.5577 670.6 48.7C668.758 48.7397 666.949 49.1915 665.305 50.0221C663.661 50.8527 662.224 52.0411 661.1 53.5C659.261 55.9826 658.31 59.0116 658.4 62.1V123C658.4 124.2 658.3 125.5 658.3 126.7C658.069 131.52 657.229 136.291 655.8 140.9C654.129 146.327 651.219 151.291 647.3 155.4C642.006 160.692 635.249 164.279 627.9 165.7C622.808 166.781 617.601 167.218 612.4 167C608.525 166.901 604.671 166.398 600.9 165.5C593.345 163.832 586.516 159.804 581.4 154C576.8 148.8 574.3 142.6 572.9 135.8C571.971 130.855 571.536 125.831 571.6 120.8V61.8C571.6 55.1 567.2 49.5 560.2 48.8C557.87 48.4598 555.492 48.7647 553.323 49.6814C551.155 50.5982 549.279 52.0918 547.9 54C546.212 56.3913 545.368 59.2761 545.5 62.2V120.8C545.5 123.7 545.6 126.7 545.7 129.6C546.049 136.58 547.362 143.479 549.6 150.1C555 165.8 565.1 177.3 580.2 184.4C588.571 188.243 597.6 190.45 606.8 190.9C613.631 191.418 620.495 191.284 627.3 190.5C634.162 189.747 640.891 188.065 647.3 185.5C658.301 181.172 667.648 173.47 674 163.5C680.4 153.6 683.4 142.5 684.2 130.8C684.217 130.295 684.284 129.792 684.4 129.3V59.4C684.395 59.1844 684.326 58.9753 684.2 58.8Z" fill="#111111" stroke="black" stroke-width="10" stroke-miterlimit="10"/>
<path d="M469 167.5C467.32 166.967 465.561 166.73 463.8 166.8C457.51 166.938 451.246 165.956 445.3 163.9C435 160.2 427.7 153.4 423.6 143.3C421.117 136.894 419.894 130.069 420 123.2C419.9 106.3 420 89.4 420 72.4V71H441.8C444.581 71.0573 447.278 70.0391 449.327 68.1576C451.376 66.276 452.62 63.6762 452.8 60.9C453 56.3 451.3 52.6 447.3 50.2C445.386 49.1084 443.2 48.5879 441 48.7H419.9V28.9C419.916 27.589 419.781 26.2805 419.5 25C419.061 22.6485 417.933 20.4804 416.259 18.7712C414.586 17.0619 412.442 15.8885 410.1 15.4L408.6 15.1H404.8C404.69 15.2053 404.55 15.275 404.4 15.3C402.445 15.566 400.581 16.2945 398.964 17.4249C397.346 18.5554 396.022 20.0552 395.1 21.8C393.974 23.885 393.422 26.2316 393.5 28.6V47.4C393.516 47.8026 393.483 48.2057 393.4 48.6C392.124 48.7356 390.856 48.9359 389.6 49.2C383.2 51 379.6 57.2 381.8 63.6C382.61 65.7193 384.011 67.5618 385.837 68.9089C387.662 70.256 389.836 71.0511 392.1 71.2C392.536 71.1872 392.971 71.2207 393.4 71.3V120.5C393.367 124.473 393.534 128.444 393.9 132.4C394.466 138.815 395.844 145.132 398 151.2C401.345 160.839 407.216 169.404 415 176C424.5 184.1 435.6 188.4 447.8 190.2C451.5 190.8 455.3 191 459 191.3C461.562 191.567 464.146 191.533 466.7 191.2C469.296 190.955 471.725 189.813 473.569 187.969C475.413 186.125 476.555 183.696 476.8 181.1C477.397 178.271 476.933 175.321 475.494 172.812C474.055 170.304 471.744 168.413 469 167.5V167.5Z" fill="#111111" stroke="black" stroke-width="10" stroke-miterlimit="10"/>
<path d="M92.1 167.2C90.6242 166.869 89.1111 166.734 87.6 166.8C81.6314 166.89 75.6875 166.012 70 164.2C60.8 161.1 53.7 155.4 49.2 146.6C46 140.5 44.7 133.9 44.3 127C44.1 123.8 44.1 120.6 44.1 117.4V71H65.4C67.593 71.0902 69.7597 70.4961 71.6 69.3C75.4 66.8 76.9 63.3 76.6 58.8C76.4084 56.4488 75.4707 54.2204 73.9237 52.4395C72.3767 50.6587 70.3013 49.4186 68 48.9C66.9113 48.701 65.8068 48.6006 64.7 48.6H44V28.3C44.0041 27.2261 43.9036 26.1544 43.7 25.1C42.5 20 39.4 16.6 34.3 15.4L32.8 15.1H29C28.8 15.2 28.7 15.3 28.5 15.3C25.5136 15.7534 22.7897 17.2655 20.8255 19.5602C18.8612 21.8549 17.7874 24.7794 17.8 27.8V48.6C16.971 48.7124 16.1364 48.7791 15.3 48.8C11 49.1 6.3 52.8 5.4 57.3C5.3 57.7 5.1 58 5 58.4V61.5C5.20611 61.8121 5.37398 62.1479 5.5 62.5C6.18011 64.8712 7.58922 66.9681 9.52763 68.4937C11.466 70.0193 13.8354 70.8962 16.3 71H17.8V121.5C17.8 124.2 17.9 126.9 18 129.6C18.3591 136.694 19.74 143.7 22.1 150.4C25.4434 160.311 31.466 169.102 39.5 175.8C49.4 184.1 61 188.4 73.7 190.1C76.9 190.5 80.1 190.8 83.3 190.9C85.8331 191.017 88.3709 190.983 90.9 190.8C93.8334 190.54 96.553 189.157 98.491 186.94C100.429 184.722 101.435 181.842 101.3 178.9C101.256 176.212 100.332 173.613 98.6705 171.501C97.0091 169.388 94.7012 167.877 92.1 167.2V167.2Z" fill="#111111" stroke="black" stroke-width="10" stroke-miterlimit="10"/>
<path d="M512.15 31.3C515.105 30.7785 517.795 29.2663 519.776 27.0125C521.757 24.7587 522.912 21.8976 523.05 18.9C523.223 15.8766 522.341 12.8869 520.553 10.4425C518.765 7.99812 516.184 6.25096 513.25 5.5C512.671 5.37962 512.102 5.2124 511.55 5H508C507.6 5.1 507.1 5.3 506.7 5.4C503.351 6.20284 500.45 8.28534 498.618 11.2013C496.787 14.1173 496.17 17.6347 496.9 21C497.626 24.3504 499.617 27.2913 502.458 29.2101C505.299 31.1289 508.771 31.8775 512.15 31.3Z" fill="#111111" stroke="black" stroke-width="10" stroke-miterlimit="10"/>
<path d="M327.9 124.8C326.4 122.8 324.8 120.9 323.3 118.9C323.566 118.591 323.801 118.256 324 117.9C335.8 102.8 347.6 87.6 359.4 72.5C360.6 70.9 361.9 69.3 363.1 67.7C364.058 66.4472 364.748 65.0104 365.127 63.4791C365.505 61.9479 365.564 60.355 365.3 58.8C363.7 49.2 353.7 46.8 347.8 49.7C345.5 50.8875 343.513 52.6005 342 54.7C331 69.3667 320 84 309 98.6C308.71 98.9489 308.443 99.3164 308.2 99.7C307.7 99.1 307.3 98.6 306.9 98.1L272.1 53.7C270.703 51.7689 268.787 50.274 266.574 49.3889C264.362 48.5038 261.943 48.2649 259.6 48.7C257.798 48.9545 256.07 49.5843 254.527 50.5488C252.984 51.5133 251.661 52.7909 250.643 54.2991C249.625 55.8072 248.935 57.5123 248.618 59.3039C248.3 61.0956 248.362 62.9339 248.8 64.7C249.396 66.7264 250.419 68.6017 251.8 70.2C264.9 86.8 278 103.5 291.1 120.1C291.289 120.352 291.456 120.62 291.6 120.9C291.424 121.184 291.224 121.452 291 121.7C278.3 137.8 265.5 153.8 252.8 169.9C252.034 170.852 251.332 171.854 250.7 172.9C249.726 174.602 249.205 176.526 249.187 178.487C249.17 180.448 249.656 182.381 250.6 184.1C251.887 186.308 253.802 188.083 256.1 189.2C258.722 190.614 261.762 191.049 264.676 190.426C267.589 189.803 270.186 188.163 272 185.8C283.5 171.1 294.9 156.4 306.4 141.7C306.6 141.4 306.9 141.1 307.2 140.7C307.44 140.934 307.642 141.204 307.8 141.5L329.7 169.4C334 174.9 338.3 180.3 342.6 185.8C343.95 187.593 345.742 189.005 347.8 189.9C350.481 191.096 353.494 191.321 356.323 190.537C359.152 189.752 361.619 188.006 363.3 185.6C364.953 183.217 365.797 180.366 365.707 177.467C365.617 174.569 364.598 171.776 362.8 169.5C351.2 154.6 339.5 139.7 327.9 124.8Z" fill="#111111" stroke="black" stroke-width="10" stroke-miterlimit="10"/>
<path d="M523 62.4V61C522.892 57.8762 521.675 54.893 519.568 52.5843C517.461 50.2757 514.601 48.7924 511.5 48.4C506.9 48 502.9 49.2 499.8 52.8C497.623 55.3205 496.479 58.5714 496.6 61.9V177.8C496.621 179.569 496.998 181.317 497.709 182.937C498.42 184.558 499.45 186.018 500.739 187.231C502.027 188.445 503.546 189.386 505.206 189.999C506.866 190.612 508.632 190.885 510.4 190.8C512.134 190.791 513.847 190.423 515.431 189.717C517.015 189.011 518.434 187.984 519.6 186.7C520.802 185.419 521.731 183.908 522.333 182.258C522.934 180.608 523.195 178.854 523.1 177.1V119.6C523 100.5 523 81.5 523 62.4Z" fill="#111111" stroke="black" stroke-width="10" stroke-miterlimit="10"/>
<path d="M235.8 112C235.652 107.832 235.15 103.683 234.3 99.6C232.621 91.3835 229.361 83.5719 224.7 76.6C218.602 67.2351 210.108 59.6733 200.1 54.7C188.051 48.649 174.34 46.7505 161.1 49.3C148.911 51.4405 137.672 57.2694 128.9 66C117.2 77.5 110.7 91.5 108.6 107.7C107.935 112.972 107.667 118.287 107.8 123.6C107.928 129.296 108.666 134.961 110 140.5C115.9 162.9 129.667 178.267 151.3 186.6C159.914 189.741 169.033 191.267 178.2 191.1C185.56 191.124 192.868 189.872 199.8 187.4C210.325 183.583 219.787 177.309 227.4 169.1C228.691 167.79 229.646 166.187 230.186 164.429C230.725 162.671 230.833 160.809 230.5 159C230.227 157.554 229.67 156.177 228.863 154.947C228.056 153.716 227.015 152.657 225.798 151.83C224.581 151.004 223.212 150.425 221.771 150.128C220.33 149.831 218.845 149.822 217.4 150.1C214.98 150.485 212.722 151.562 210.9 153.2C208.9 154.9 207.1 156.8 205 158.4C200.574 161.971 195.42 164.531 189.9 165.9C182.56 167.732 174.9 167.869 167.5 166.3C158.764 164.618 150.804 160.164 144.8 153.6C140.522 149.048 137.281 143.624 135.3 137.7C134.101 134.303 133.296 130.78 132.9 127.2C132.8 126.7 132.8 126.2 132.7 125.7H132.8C132.515 123.077 132.381 120.439 132.4 117.8C132.355 112.111 133.164 106.448 134.8 101V100.8C134.8 100.7 134.9 100.5 134.9 100.4C135.2 99.6 135.5 98.7 135.8 97.9C137.368 93.2975 139.775 89.0254 142.9 85.3C148.002 79.2521 154.965 75.0669 162.7 73.4C174.8 70.7 185.9 73 195.8 80.4C201.1 84.4 205.2 89.3 207.3 95.6C208 97.7 208.4 99.8 208.9 101.9C209 102.2 208.9 102.5 209 103H157.7C155.495 102.932 153.325 103.562 151.5 104.8C147.7 107.3 146.2 110.8 146.5 115.3C146.692 117.651 147.629 119.88 149.176 121.66C150.723 123.441 152.799 124.681 155.1 125.2C156.183 125.464 157.287 125.631 158.4 125.7H166.9C191.9 125.7 197.3 125.6 222.4 125.6H223.8C226.086 125.499 228.3 124.775 230.204 123.506C232.108 122.237 233.628 120.471 234.6 118.4C235.59 116.421 236.005 114.204 235.8 112V112Z" fill="#111111" stroke="black" stroke-width="10" stroke-miterlimit="10"/>
</svg>
