<svg width="120" height="auto" viewBox="0 0 302 77" fill="none" xmlns="http://www.w3.org/2000/svg">
<path d="M300.91 18.65C300.77 17.7297 300.383 16.8647 299.789 16.1477C299.196 15.4308 298.418 14.8888 297.54 14.58C296.722 14.2822 295.848 14.1662 294.98 14.24C294.182 14.2517 293.396 14.444 292.683 14.8025C291.969 15.161 291.346 15.6764 290.86 16.31C290.05 17.3851 289.63 18.7043 289.67 20.05C289.67 28.91 289.67 37.7667 289.67 46.62C289.67 47.16 289.67 47.69 289.62 48.23C289.526 50.3515 289.16 52.4521 288.53 54.48C287.808 56.8575 286.533 59.0301 284.81 60.82C282.495 63.1387 279.537 64.7097 276.32 65.33C274.103 65.8011 271.835 65.9892 269.57 65.89C267.885 65.8349 266.21 65.6104 264.57 65.22C261.272 64.4905 258.288 62.7412 256.04 60.22C254.132 57.9438 252.846 55.2115 252.31 52.29C251.904 50.131 251.716 47.9366 251.75 45.74V30.84C251.75 27.23 251.75 23.61 251.75 19.99C251.806 18.5841 251.318 17.2106 250.386 16.1561C249.455 15.1016 248.152 14.4474 246.75 14.33C245.732 14.1822 244.693 14.3166 243.746 14.7186C242.799 15.1207 241.981 15.7749 241.38 16.61C240.636 17.6441 240.26 18.8972 240.31 20.17C240.31 28.6967 240.31 37.2267 240.31 45.76C240.31 47.04 240.31 48.32 240.42 49.59C240.57 52.6334 241.139 55.6417 242.11 58.53C243.169 61.8232 244.904 64.8588 247.205 67.4419C249.506 70.0251 252.321 72.0988 255.47 73.53C259.133 75.1913 263.074 76.1578 267.09 76.38C270.089 76.6069 273.103 76.5466 276.09 76.2C279.083 75.8685 282.016 75.1318 284.81 74.01C289.611 72.1086 293.693 68.747 296.48 64.4C299.157 60.1091 300.686 55.2021 300.92 50.15C300.92 49.93 300.98 49.72 301.02 49.5V18.89C300.973 18.8152 300.936 18.7345 300.91 18.65Z" fill="#111111"/>
<path d="M206.99 66.53C206.263 66.3004 205.502 66.1989 204.74 66.23C202.001 66.2861 199.273 65.8631 196.68 64.98C194.536 64.2713 192.577 63.0967 190.941 61.5406C189.305 59.9845 188.035 58.0855 187.22 55.98C186.142 53.18 185.61 50.1999 185.65 47.2C185.65 39.81 185.65 32.43 185.65 25.04V24.42H186.33C189.33 24.42 192.25 24.42 195.21 24.42C196.427 24.448 197.607 24.0031 198.502 23.1787C199.397 22.3543 199.938 21.2148 200.01 20C200.097 19.071 199.917 18.1365 199.492 17.3058C199.067 16.4752 198.414 15.7829 197.61 15.31C196.778 14.8353 195.827 14.6097 194.87 14.66H185.66V13.97C185.66 11.32 185.66 8.68 185.66 6.03C185.672 5.45907 185.618 4.88865 185.5 4.33002C185.31 3.3011 184.816 2.35277 184.082 1.6076C183.347 0.862443 182.406 0.354718 181.38 0.150024C181.17 0.0900244 180.95 0.05 180.74 0H179.07C179.019 0.0395805 178.961 0.0700259 178.9 0.0899963C178.055 0.214233 177.252 0.537426 176.556 1.03293C175.861 1.52843 175.293 2.18207 174.9 2.94C174.412 3.86228 174.177 4.89747 174.22 5.94C174.22 8.67 174.22 11.4 174.22 14.13C174.22 14.32 174.22 14.5 174.22 14.65C173.666 14.7029 173.115 14.7864 172.57 14.9C171.915 15.055 171.299 15.3464 170.764 15.7553C170.229 16.1642 169.786 16.6814 169.464 17.273C169.142 17.8647 168.949 18.5176 168.896 19.1891C168.844 19.8606 168.934 20.5356 169.16 21.17C169.513 22.0965 170.127 22.901 170.927 23.4865C171.728 24.072 172.68 24.4136 173.67 24.47H174.24V25.15C174.24 32.07 174.24 38.99 174.24 45.91C174.24 47.64 174.24 49.36 174.45 51.09C174.707 53.8792 175.305 56.6264 176.23 59.27C177.687 63.4776 180.246 67.2175 183.64 70.1C187.734 73.4825 192.702 75.6357 197.97 76.31C199.59 76.55 201.23 76.67 202.87 76.78C203.987 76.895 205.113 76.895 206.23 76.78C207.358 76.6555 208.41 76.1511 209.213 75.3497C210.016 74.5483 210.523 73.4975 210.65 72.37C210.834 71.1203 210.567 69.8459 209.896 68.7755C209.225 67.7052 208.195 66.909 206.99 66.53V66.53Z" fill="#111111"/>
<path d="M38.99 66.4C38.3339 66.2544 37.6613 66.1972 36.99 66.23C34.3913 66.264 31.8042 65.8756 29.33 65.08C27.3819 64.4709 25.5751 63.4786 24.0159 62.1615C22.4566 60.8443 21.1763 59.2289 20.25 57.41C18.946 54.7443 18.2137 51.8354 18.1 48.87C18.01 47.48 18.01 46.07 18 44.67C18 38.15 18 31.63 18 25.11C18 24.89 18 24.67 18 24.42H27.33C28.2897 24.4579 29.2382 24.2033 30.05 23.69C30.8107 23.2154 31.4194 22.5326 31.804 21.7227C32.1886 20.9127 32.333 20.0095 32.22 19.12C32.1388 18.0952 31.732 17.1233 31.0592 16.3461C30.3863 15.5689 29.4826 15.0271 28.48 14.8C28.0058 14.7071 27.5232 14.6635 27.04 14.67C24.25 14.67 21.46 14.67 18.67 14.67H18.01V14.05C18.01 11.3 18.01 8.55002 18.01 5.80002C18.0202 5.33372 17.9799 4.86767 17.89 4.41C17.7071 3.36917 17.2155 2.40739 16.479 1.64951C15.7425 0.891624 14.7952 0.372654 13.76 0.160004L13.12 0.0100098H11.46C11.387 0.0486268 11.3098 0.078817 11.23 0.100006C9.92717 0.300969 8.73957 0.962376 7.88272 1.96417C7.02587 2.96597 6.55658 4.24175 6.56003 5.56C6.56003 8.4 6.56003 11.23 6.56003 14.06V14.63L5.48001 14.73C4.46926 14.8347 3.51442 15.2449 2.74265 15.9059C1.97087 16.5669 1.4188 17.4474 1.16 18.43C1.11144 18.5923 1.04786 18.7496 0.970032 18.9V20.25C1.05099 20.3967 1.11793 20.5508 1.17001 20.71C1.46617 21.7492 2.08291 22.6684 2.93228 23.3364C3.78165 24.0044 4.82029 24.3871 5.90002 24.43H6.56003V25.1C6.56003 32.2267 6.56003 39.3567 6.56003 46.49C6.56003 47.66 6.56001 48.84 6.67001 50.01C6.84436 53.1048 7.44676 56.1606 8.46002 59.09C9.92603 63.4069 12.5477 67.2393 16.04 70.17C20.3047 73.6484 25.4881 75.8128 30.96 76.4C32.34 76.59 33.74 76.7 35.14 76.77C36.2421 76.845 37.348 76.845 38.45 76.77C39.7319 76.6554 40.9202 76.0509 41.7677 75.0824C42.6152 74.1138 43.0566 72.8558 43 71.57C42.9912 70.3878 42.5938 69.2412 41.8692 68.307C41.1446 67.3728 40.1329 66.7027 38.99 66.4V66.4Z" fill="#111111"/>
<path d="M224.48 11.48C225.766 11.2449 226.934 10.5802 227.793 9.5947C228.651 8.60919 229.15 7.3613 229.207 6.05539C229.264 4.74948 228.876 3.46293 228.106 2.40643C227.336 1.34994 226.231 0.586113 224.97 0.240021L224.23 0.0400085H222.67L222.09 0.200012C220.647 0.567893 219.401 1.47977 218.615 2.74481C217.828 4.00985 217.562 5.53003 217.87 6.98727C218.179 8.44452 219.04 9.72588 220.271 10.5633C221.503 11.4006 223.011 11.7291 224.48 11.48V11.48Z" fill="#111111"/>
<path d="M141.9 47.91C141.22 47.05 140.56 46.19 139.9 45.32C140.02 45.17 140.11 45.03 140.22 44.89L155.67 25.09C156.22 24.4 156.77 23.71 157.29 22.99C157.714 22.4484 158.021 21.8251 158.194 21.1593C158.366 20.4934 158.398 19.7992 158.29 19.12C158.159 18.2948 157.836 17.5115 157.349 16.8327C156.862 16.1539 156.223 15.5982 155.483 15.2098C154.743 14.8214 153.923 14.611 153.087 14.5954C152.252 14.5799 151.424 14.7595 150.67 15.12C149.666 15.6361 148.801 16.3874 148.15 17.31L133.69 36.48C133.58 36.62 133.46 36.76 133.33 36.94L132.77 36.24C127.71 29.7867 122.65 23.3367 117.59 16.89C116.988 16.0425 116.155 15.3857 115.191 14.9975C114.227 14.6093 113.171 14.506 112.15 14.7C111.363 14.8121 110.608 15.0883 109.934 15.5108C109.26 15.9333 108.682 16.4925 108.238 17.1524C107.794 17.8123 107.494 18.5581 107.356 19.3414C107.219 20.1248 107.247 20.9284 107.44 21.7C107.698 22.5813 108.149 23.3942 108.76 24.08C114.48 31.34 120.19 38.6033 125.89 45.87C125.972 45.9737 126.046 46.084 126.11 46.2L125.84 46.56L109.17 67.56C108.831 67.9738 108.533 68.4192 108.28 68.89C107.854 69.6285 107.624 70.4635 107.612 71.3159C107.6 72.1682 107.806 73.0096 108.21 73.76C108.685 74.5463 109.341 75.208 110.123 75.6901C110.906 76.1722 111.791 76.4609 112.707 76.5323C113.623 76.6037 114.543 76.4556 115.391 76.1004C116.238 75.7452 116.989 75.1932 117.58 74.49L132.58 55.26L132.95 54.82L133.22 55.16L142.78 67.32C144.653 69.7 146.527 72.0766 148.4 74.45C148.993 75.2238 149.765 75.8417 150.65 76.25C151.824 76.7694 153.142 76.8648 154.379 76.52C155.615 76.1753 156.694 75.4118 157.43 74.36C158.149 73.3229 158.514 72.0814 158.471 70.8202C158.428 69.559 157.978 68.3454 157.19 67.36C152.06 60.91 146.99 54.4 141.9 47.91Z" fill="#111111"/>
<path d="M229.23 20.68C229.23 20.47 229.23 20.26 229.23 20.06C229.188 18.9009 228.798 17.7813 228.111 16.8468C227.424 15.9123 226.472 15.2061 225.378 14.8199C224.284 14.4338 223.1 14.3856 221.978 14.6817C220.857 14.9777 219.851 15.6043 219.09 16.48C218.137 17.5905 217.634 19.0174 217.68 20.48C217.68 37.26 217.68 54.0367 217.68 70.81V71.07C217.68 72.567 218.269 74.0038 219.32 75.07C219.882 75.6493 220.563 76.1002 221.315 76.3919C222.068 76.6836 222.874 76.8092 223.68 76.7601C224.435 76.7559 225.182 76.5936 225.871 76.2836C226.56 75.9736 227.176 75.5227 227.68 74.96C228.723 73.8266 229.279 72.3294 229.23 70.79C229.23 62.4167 229.23 54.0467 229.23 45.68V20.68Z" fill="#111111"/>
<path d="M101.72 42.3C101.637 40.4836 101.423 38.6756 101.08 36.89C100.343 33.3154 98.9165 29.9187 96.88 26.89C93.9524 22.3814 89.7527 18.843 84.8128 16.7228C79.8728 14.6027 74.4148 13.9961 69.13 14.98C63.8047 15.9073 58.893 18.4486 55.06 22.26C50.0924 27.13 46.9591 33.5661 46.19 40.48C45.8967 42.7777 45.783 45.0947 45.85 47.41C45.8918 49.9041 46.2274 52.3845 46.85 54.8C49.43 64.57 55.44 71.32 64.85 74.93C68.6152 76.3084 72.6008 76.9862 76.61 76.93C79.8191 76.9564 83.0067 76.4042 86.02 75.3C90.6034 73.6338 94.7191 70.89 98.02 67.3C98.5854 66.7332 99.0047 66.0375 99.2416 65.2728C99.4785 64.508 99.526 63.6972 99.38 62.91C99.1398 61.6357 98.4034 60.509 97.3326 59.7776C96.2618 59.0462 94.9443 58.7701 93.67 59.01C92.6241 59.1903 91.6463 59.6498 90.84 60.34C89.98 61.09 89.17 61.9 88.28 62.61C86.3451 64.165 84.0971 65.2839 81.69 65.89C78.4863 66.6898 75.1437 66.7581 71.91 66.09C68.1075 65.3574 64.6427 63.4181 62.03 60.56C60.1682 58.5648 58.7534 56.1954 57.88 53.61C57.3792 52.1282 57.0438 50.5955 56.88 49.04C56.88 48.82 56.81 48.6 56.77 48.37C56.66 47.25 56.61 46.11 56.61 44.95C56.576 42.4639 56.913 39.9866 57.61 37.6C57.6133 37.5768 57.6133 37.5532 57.61 37.53L57.67 37.35C57.79 36.98 57.91 36.62 58.05 36.25C58.7327 34.2503 59.7767 32.3929 61.13 30.77C63.3594 28.1304 66.4017 26.305 69.78 25.58C72.2713 24.9276 74.8794 24.857 77.4024 25.3737C79.9254 25.8904 82.2957 26.9806 84.33 28.56C86.6388 30.2118 88.3842 32.5333 89.33 35.21C89.63 36.1 89.8 37.04 90.02 37.97C90.0317 38.1231 90.0317 38.2769 90.02 38.43H67.65C66.6828 38.4137 65.7325 38.6852 64.92 39.21C64.1593 39.6846 63.5505 40.3674 63.1659 41.1773C62.7813 41.9873 62.637 42.8905 62.75 43.78C62.8322 44.8055 63.2391 45.7782 63.9116 46.5568C64.5842 47.3354 65.4873 47.8795 66.49 48.11C66.9652 48.231 67.4506 48.3079 67.94 48.34H71.65C82.59 48.34 84.93 48.34 95.89 48.34H96.51C97.5106 48.286 98.4782 47.963 99.3106 47.4051C100.143 46.8472 100.81 46.075 101.24 45.17C101.658 44.2748 101.824 43.2825 101.72 42.3V42.3Z" fill="#111111"/>
</svg>
